<svg xmlns="http://www.w3.org/2000/svg" width="14.003" height="30" viewBox="0 0 14.003 30">
  <g id="_020201ff" data-name="#020201ff" transform="translate(-33.698 -3397)">
    <path id="Path_10" data-name="Path 10" d="M38.312,3398.546a6.574,6.574,0,0,1,4.4-1.537c1.66-.015,3.319-.006,4.979-.006q.01,2.628,0,5.255c-1.073,0-2.147,0-3.22,0a1.482,1.482,0,0,0-1.5,1.148c-.016,1.171-.006,2.344-.005,3.516,1.573.006,3.147,0,4.72,0-.115,1.695-.325,3.382-.572,5.063-1.39.013-2.781,0-4.17.008-.013,5,.006,10-.01,15-2.065.009-4.13,0-6.195.006-.039-5,0-10-.021-15-1.007-.01-2.015.007-3.022-.008,0-1.681,0-3.362,0-5.042,1.006-.013,2.013,0,3.02-.008.03-1.634-.031-3.27.032-4.9A5.282,5.282,0,0,1,38.312,3398.546Z" fill="#3d58a6"/>
  </g>
</svg>
