<svg xmlns="http://www.w3.org/2000/svg" width="24.812" height="30" viewBox="0 0 24.812 30">
  <path id="Path_11" data-name="Path 11" d="M129.3,3421.361v-3.541q0-1.128-.654-1.128a1.054,1.054,0,0,0-.744.361v5.052a1.054,1.054,0,0,0,.744.361q.654,0,.654-1.1Zm4.151-2.752h1.488v-.767q0-1.151-.744-1.15t-.744,1.15Zm-12.88-6v1.579h-1.805v9.541H117.1v-9.541H115.34v-1.579Zm4.534,2.842v8.278H123.6v-.9a2.4,2.4,0,0,1-1.714,1.015.886.886,0,0,1-.947-.632,3.838,3.838,0,0,1-.136-1.218v-6.541h1.489v6.09a3.391,3.391,0,0,0,.023.587q.022.338.338.338.451,0,.947-.7v-6.316Zm5.684,2.5v3.293a5.894,5.894,0,0,1-.158,1.647,1.156,1.156,0,0,1-1.195.947,2.041,2.041,0,0,1-1.534-.925v.812h-1.512v-11.12H127.9v3.632a2,2,0,0,1,1.534-.9,1.156,1.156,0,0,1,1.195.948A6,6,0,0,1,130.791,3417.955Zm5.662,2.91v.2a7.338,7.338,0,0,1-.046.97,2.117,2.117,0,0,1-.338.9,2.035,2.035,0,0,1-1.8.9,2.168,2.168,0,0,1-1.827-.857,3.171,3.171,0,0,1-.474-1.94v-2.91a3.293,3.293,0,0,1,.451-1.94,2.146,2.146,0,0,1,1.805-.857,2.026,2.026,0,0,1,1.759.857,3.233,3.233,0,0,1,.474,1.94v1.715h-3v1.466q0,1.151.767,1.15a.653.653,0,0,0,.676-.586c0-.015,0-.068.011-.158s.012-.215.012-.372v-.485Zm-10.173-18.587v3.519q0,1.15-.722,1.15t-.722-1.15v-3.519q0-1.173.722-1.173T126.28,3402.278Zm12.022,16.083a28.913,28.913,0,0,0-.428-5.865,3.1,3.1,0,0,0-.97-1.658,3.052,3.052,0,0,0-1.715-.778,92.923,92.923,0,0,0-9.293-.338,92.613,92.613,0,0,0-9.27.338,3.015,3.015,0,0,0-1.726.778,3.123,3.123,0,0,0-.959,1.658,28.277,28.277,0,0,0-.451,5.865,27.7,27.7,0,0,0,.451,5.865,3.174,3.174,0,0,0,.959,1.646,2.967,2.967,0,0,0,1.7.79q3.09.337,9.293.338t9.293-.338a2.964,2.964,0,0,0,1.7-.79,3.167,3.167,0,0,0,.959-1.646A27.638,27.638,0,0,0,138.3,3418.361Zm-17.03-14.684L123.3,3397h-1.691l-1.151,4.4-1.195-4.4H117.5l.542,1.556.518,1.557a30.756,30.756,0,0,1,1.038,3.564v4.533h1.669v-4.533Zm6.519,1.827v-2.933a3.34,3.34,0,0,0-.474-1.962,2.1,2.1,0,0,0-1.759-.857,2.027,2.027,0,0,0-1.76.857,3.348,3.348,0,0,0-.473,1.962v2.933a3.348,3.348,0,0,0,.473,1.962,2.025,2.025,0,0,0,1.76.857,2.1,2.1,0,0,0,1.759-.857A3.215,3.215,0,0,0,127.791,3405.5Zm4.083,2.706h1.511v-8.345h-1.511v6.383q-.5.7-.948.7c-.225,0-.346-.12-.361-.361a3.442,3.442,0,0,1-.022-.586v-6.135h-1.511v6.609a4.213,4.213,0,0,0,.135,1.24.949.949,0,0,0,.97.609,2.52,2.52,0,0,0,1.737-1.015v.9Z" transform="translate(-113.49 -3397)" fill="#3d58a6"/>
</svg>
